<svg width="376" height="395" viewBox="0 0 376 395" fill="none" xmlns="http://www.w3.org/2000/svg">
<path d="M62.6011 39.943C88.6579 50.0209 113.413 64.3954 135.99 82.0186" stroke="#59CBE8" stroke-width="16.8" stroke-linecap="round"/>
<path d="M-120.149 33.946C-110.955 29.6893 -101.472 26.0626 -91.774 23.089C-82.0762 20.1133 -72.1495 17.8558 -62.0989 16.2262C-52.0441 14.605 -41.8591 13.6474 -31.6132 13.3534L-27.7681 13.282C-26.4871 13.2694 -25.2061 13.2085 -23.9209 13.2547L-16.2139 13.4038L-8.49637 13.8322C-5.92597 14.0002 -3.35347 14.2879 -0.783073 14.5126C19.7759 16.6609 40.2719 21.3313 60.0707 28.5952L63.7877 29.9371L67.469 31.4029L71.1482 32.8792L72.9878 33.6163L74.8043 34.4206L82.0745 37.642L89.2502 41.1196C98.759 45.8971 108.066 51.1723 117.119 56.9326" stroke="#FF7F41" stroke-width="25.0467" stroke-linecap="round"/>
<path d="M12.8111 25.327C12.8111 25.327 -42.5995 11.635 -97.1995 36.0412" stroke="#FDDA24" stroke-width="20.8236" stroke-linecap="round"/>
</svg>
